<svg width="153" height="124" viewBox="0 0 153 124" fill="none" xmlns="http://www.w3.org/2000/svg">
<path d="M25.2373 122.646H22.269C21.7319 122.646 21.2796 122.519 20.9121 122.264C20.5447 121.982 20.2478 121.558 20.0217 120.992L7.34316 88.6386C6.97567 87.7058 6.62231 87.0414 6.28309 86.6457C5.97213 86.2499 5.5905 86.0096 5.1382 85.9248L3.48448 85.5856C3.06045 85.4725 2.76363 85.3312 2.59402 85.1616C2.42441 84.992 2.3396 84.7799 2.3396 84.5255C2.3396 84.2146 2.45267 83.9743 2.67882 83.8047C2.93324 83.6351 3.25833 83.5503 3.6541 83.5503H20.6577C21.5058 83.5503 21.9298 83.8612 21.9298 84.4831C21.9298 84.7658 21.845 84.992 21.6754 85.1616C21.5058 85.3312 21.209 85.4584 20.7849 85.5432L18.9192 85.8824C17.4775 86.1651 16.6153 86.5891 16.3326 87.1545C16.0782 87.7199 16.2195 88.681 16.7566 90.0379L27.2726 117.642L25.5341 119.169L36.4317 90.3347C36.9688 88.893 37.0819 87.8612 36.7709 87.2393C36.4882 86.5891 35.6543 86.1368 34.2691 85.8824L32.2762 85.5432C31.8804 85.4584 31.5836 85.3312 31.3857 85.1616C31.2161 84.992 31.1313 84.7658 31.1313 84.4831C31.1313 84.1722 31.2444 83.946 31.4705 83.8047C31.7249 83.6351 32.05 83.5503 32.4458 83.5503H43.9794C44.3752 83.5503 44.6861 83.6351 44.9123 83.8047C45.1384 83.9743 45.2515 84.2146 45.2515 84.5255C45.2515 84.7799 45.1667 84.992 44.9971 85.1616C44.8558 85.3312 44.5448 85.4725 44.0642 85.5856L42.5377 85.84C41.9441 85.9814 41.4211 86.3489 40.9688 86.9425C40.5448 87.5079 40.0783 88.4549 39.5695 89.7835L27.3998 121.119C27.1737 121.713 26.8769 122.109 26.5094 122.307C26.1419 122.533 25.7178 122.646 25.2373 122.646Z" fill="#A9B8AC"/>
<path d="M82.2005 98.3913C82.2005 99.2677 81.9319 99.9461 81.3948 100.427C80.8577 100.907 80.0662 101.148 79.0203 101.148H52.2639V99.2394H72.0662C73.1121 99.2394 73.6351 98.7588 73.6351 97.7977C73.6351 93.6705 72.8436 90.5044 71.2605 88.2994C69.6775 86.0944 67.5997 84.992 65.0273 84.992C62.9071 84.992 61.0696 85.5997 59.5149 86.8153C57.9601 88.0308 56.7587 89.7835 55.9106 92.0733C55.0625 94.363 54.6385 97.1051 54.6385 100.299C54.6385 105.981 55.9389 110.307 58.5396 113.275C61.1686 116.215 64.5891 117.685 68.8011 117.685C71.5997 117.685 74.0167 116.992 76.0521 115.607C78.1157 114.194 79.4867 112.3 80.1652 109.925C80.3913 109.586 80.5892 109.36 80.7588 109.247C80.9284 109.105 81.1122 109.035 81.31 109.035C81.5927 109.035 81.7906 109.162 81.9037 109.416C82.045 109.642 82.1016 109.925 82.0733 110.264C81.8754 112.667 81.0415 114.858 79.5715 116.837C78.1298 118.787 76.2075 120.342 73.8047 121.501C71.4018 122.632 68.6881 123.197 65.6633 123.197C61.9318 123.197 58.6527 122.391 55.8258 120.78C52.9989 119.169 50.794 116.907 49.2109 113.996C47.6279 111.056 46.8363 107.621 46.8363 103.692C46.8363 99.6493 47.6137 96.045 49.1685 92.8789C50.7515 89.7128 52.9848 87.2252 55.8682 85.416C58.7516 83.5785 62.158 82.6598 66.0873 82.6598C69.3665 82.6598 72.2075 83.3382 74.6104 84.6951C77.0132 86.0238 78.8789 87.8754 80.2076 90.2499C81.5362 92.5962 82.2005 95.31 82.2005 98.3913Z" fill="#A9B8AC"/>
<path d="M101.275 61.331V117.77C101.275 118.391 101.388 118.858 101.614 119.169C101.869 119.48 102.236 119.692 102.717 119.805L104.922 120.229C105.289 120.314 105.558 120.455 105.728 120.653C105.925 120.823 106.024 121.035 106.024 121.289C106.024 121.572 105.911 121.812 105.685 122.01C105.459 122.179 105.12 122.264 104.668 122.264H89.36C88.9077 122.264 88.5685 122.179 88.3423 122.01C88.1444 121.812 88.0455 121.572 88.0455 121.289C88.0455 121.035 88.1303 120.823 88.2999 120.653C88.4978 120.483 88.7946 120.342 89.1904 120.229L91.3953 119.805C91.9042 119.692 92.2717 119.48 92.4978 119.169C92.724 118.858 92.837 118.406 92.837 117.812V66.4194C92.837 65.9671 92.7522 65.642 92.5826 65.4441C92.4413 65.218 92.1869 65.0908 91.8194 65.0625L88.7664 64.9777C88.4271 64.9494 88.1868 64.8646 88.0455 64.7233C87.9042 64.5537 87.8335 64.3558 87.8335 64.1296C87.8335 63.8752 87.9183 63.6632 88.0879 63.4936C88.2575 63.324 88.5543 63.1685 88.9784 63.0272L97.1622 60.3982C97.8406 60.172 98.3636 60.0165 98.7311 59.9317C99.1268 59.8187 99.4519 59.7621 99.7064 59.7621C100.243 59.7621 100.639 59.9035 100.894 60.1862C101.148 60.4688 101.275 60.8505 101.275 61.331Z" fill="#A9B8AC"/>
<path d="M135.782 117.515V116.879L135.316 116.837V92.1581C135.316 89.6704 134.736 87.7764 133.577 86.4761C132.446 85.1474 130.807 84.4831 128.658 84.4831C126.51 84.4831 124.899 84.9637 123.824 85.9248C122.778 86.8577 122.256 87.9178 122.256 89.1051V92.2853C122.256 93.5857 121.831 94.6033 120.983 95.3383C120.135 96.0733 118.99 96.4408 117.549 96.4408C116.361 96.4408 115.429 96.1157 114.75 95.4655C114.1 94.7871 113.775 93.8683 113.775 92.7093C113.775 91.0697 114.397 89.4867 115.641 87.9602C116.913 86.4054 118.75 85.1333 121.153 84.1439C123.584 83.1545 126.538 82.6598 130.015 82.6598C134.623 82.6598 138.058 83.6633 140.319 85.6704C142.581 87.6775 143.711 90.3913 143.711 93.8118V116.582C143.711 117.6 143.881 118.335 144.22 118.787C144.588 119.211 145.068 119.423 145.662 119.423C146.312 119.423 146.807 119.268 147.146 118.957C147.485 118.646 147.74 118.278 147.909 117.854C147.994 117.685 148.093 117.558 148.206 117.473C148.319 117.388 148.461 117.346 148.63 117.346C148.828 117.346 148.969 117.416 149.054 117.558C149.167 117.699 149.224 117.897 149.224 118.151C149.224 118.858 148.969 119.593 148.461 120.356C147.98 121.119 147.231 121.77 146.213 122.307C145.224 122.872 143.952 123.155 142.397 123.155C140.277 123.155 138.637 122.66 137.478 121.671C136.347 120.681 135.782 119.296 135.782 117.515ZM111.824 113.699C111.824 110.504 113.21 107.904 115.98 105.897C118.75 103.861 122.722 102.844 127.895 102.844C129.846 102.844 131.57 103.027 133.068 103.395C134.567 103.762 135.909 104.215 137.097 104.752L136.545 106.321C135.415 105.812 134.227 105.402 132.983 105.091C131.768 104.78 130.439 104.625 128.998 104.625C126.284 104.625 124.178 105.317 122.68 106.702C121.181 108.088 120.432 109.967 120.432 112.342C120.432 114.688 121.068 116.497 122.34 117.77C123.641 119.042 125.309 119.678 127.344 119.678C129.04 119.678 130.694 119.296 132.305 118.533C133.945 117.77 135.33 116.667 136.461 115.225L137.139 116.582C135.641 118.674 133.662 120.3 131.203 121.459C128.743 122.589 126.128 123.155 123.358 123.155C119.937 123.155 117.153 122.293 115.005 120.568C112.884 118.844 111.824 116.554 111.824 113.699Z" fill="#A9B8AC"/>
<path d="M146.657 73.7975C146.846 74.1382 147.158 74.3974 147.532 74.5142C147.906 74.6312 148.309 74.5968 148.655 74.4181C149.001 74.2393 149.263 73.93 149.384 73.5575C149.505 73.185 149.474 72.7804 149.306 72.429C149.306 72.429 149.306 72.429 149.306 72.429C146.869 67.3601 143.989 62.4714 140.835 57.7854C113.798 15.1406 56.0972 -10.88 6.45664 8.43268C6.0966 8.55448 5.73607 8.67814 5.37507 8.80366C2.28379 9.90891 0.991111 13.3927 2.38318 16.1999C11.1044 33.1537 23.1047 52.3702 44.6106 56.932C66.0182 60.8646 83.7357 48.5908 101.56 46.0792L101.711 46.0577C111.152 44.5413 121.917 48.1943 130.361 53.9179C134.766 56.942 138.669 60.7296 141.668 65.1832C141.885 65.5066 142.219 65.7383 142.601 65.8229C142.983 65.9076 143.383 65.839 143.712 65.6314C144.042 65.4238 144.276 65.0934 144.365 64.712C144.453 64.3305 144.388 63.93 144.191 63.5941C144.191 63.5941 144.191 63.5941 144.191 63.5941C141.252 58.6124 137.264 54.2725 132.672 50.7452C123.726 44.0992 112.865 39.3733 100.791 40.6658L100.942 40.6443C81.0518 42.9597 63.4607 53.7337 46.1017 49.7914C28.9286 45.9859 17.7923 29.0627 9.49365 12.6473C10.1744 14.0954 9.60689 15.6892 7.98469 16.3135C8.32518 16.1953 8.66509 16.0788 9.00442 15.964C55.4075 -1.87906 108.624 20.0393 137.638 60.0638C140.941 64.4449 144.006 69.0359 146.657 73.7975Z" fill="#A9B8AC"/>
</svg>
